# xmcd
#
# Track frame offsets:
# 150
# 11597
# 23415
# 35830
# 52642
# 65672
# 81575
# 94217
# 108330
# 117967
# 129632
# 141187
# 155817
# 166117
# 178392
# 191485
# 206950
# 217787
# 231317
# 244472
#
# Disc length: 3438 seconds
#
#
# Revision: 0
# Processed by: cddbd v1.5.1PL2 Copyright (c) Steve Scherf et al.
# Submitted via: FreeRIP 2.942 
#
DISCID=230d6c14
DTITLE=Zilo and Zalo - raízes Sertanejas
DYEAR=1900
DGENRE=Country
TTITLE0=Zilo and Zalo/Recordação
TTITLE1=Zilo and Zalo/A Marca da Traição
TTITLE2=Zilo and Zalo/O Verdadeiro Amor
TTITLE3=Zilo and Zalo/Parabéns Norte e Nordeste
TTITLE4=Zilo and Zalo/Última Serenata
TTITLE5=Zilo and Zalo/O Milagre do Ladrão
TTITLE6=Zilo and Zalo/Arrependimento
TTITLE7=Zilo and Zalo/Violão Amigo
TTITLE8=Zilo and Zalo/Mulher Inocente
TTITLE9=Zilo and Zalo/O Mesmo Amigo
TTITLE10=Zilo and Zalo/Meu Regresso
TTITLE11=Zilo and Zalo/Sombra do Passado
TTITLE12=Zilo and Zalo/A gaivota
TTITLE13=Zilo and Zalo/Feitiço Espanhol
TTITLE14=Zilo and Zalo/Boneca Loira
TTITLE15=Zilo and Zalo/Minha Confição
TTITLE16=Zilo and Zalo/Amigo Fiel
TTITLE17=Zilo and Zalo/A Porteira
TTITLE18=Zilo and Zalo/Covardia
TTITLE19=Zilo and Zalo/O Silêncio do Seresteiro
EXTD=Num sei o ano naum
EXTT0=
EXTT1=
EXTT2=
EXTT3=
EXTT4=
EXTT5=
EXTT6=
EXTT7=
EXTT8=
EXTT9=
EXTT10=
EXTT11=
EXTT12=
EXTT13=
EXTT14=
EXTT15=
EXTT16=
EXTT17=
EXTT18=
EXTT19=
PLAYORDER=
